<svg width="64" height="64" viewBox="0 0 64 64" fill="none" xmlns="http://www.w3.org/2000/svg">
  <defs>
    <linearGradient id="fg" x1="0" y1="0" x2="64" y2="64">
      <stop offset="0%" stop-color="#6366F1" />
      <stop offset="50%" stop-color="#8B5CF6" />
      <stop offset="100%" stop-color="#06B6D4" />
    </linearGradient>
    <linearGradient id="bg" x1="0" y1="0" x2="64" y2="64">
      <stop offset="0%" stop-color="#050505" />
      <stop offset="100%" stop-color="#0A0A0A" />
    </linearGradient>
  </defs>
  <!-- Background hexagon -->
  <path d="M32 2L58 17V47L32 62L6 47V17L32 2Z" fill="url(#bg)" stroke="url(#fg)" stroke-width="2"/>
  <!-- Inner fill -->
  <path d="M32 6L54 19V45L32 58L10 45V19L32 6Z" fill="rgba(99,102,241,0.05)"/>
  <!-- Letter A -->
  <path d="M20 44L28 18H30L38 44" stroke="url(#fg)" stroke-width="2.5" stroke-linecap="round" stroke-linejoin="round" fill="none"/>
  <path d="M23 36H35" stroke="url(#fg)" stroke-width="2" stroke-linecap="round"/>
  <!-- Letter B -->
  <path d="M30 18V44" stroke="url(#fg)" stroke-width="2.5" stroke-linecap="round"/>
  <path d="M30 18H38C42 18 44 20.5 44 23.5C44 26.5 42 28.5 39 29C42.5 29.5 45 32 45 35.5C45 39 42 44 38 44H30" stroke="url(#fg)" stroke-width="2.5" stroke-linecap="round" stroke-linejoin="round" fill="none"/>
  <!-- Accent -->
  <circle cx="50" cy="14" r="1.5" fill="url(#fg)" opacity="0.8"/>
</svg>
